<svg width="107" height="60" viewBox="0 0 107 60" fill="none" xmlns="http://www.w3.org/2000/svg">
<ellipse cx="76.5" cy="30" rx="30.5" ry="30" fill="#0891B2"/>
<path d="M87.8839 30.8839C88.372 30.3957 88.372 29.6043 87.8839 29.1161L79.9289 21.1612C79.4408 20.673 78.6493 20.673 78.1612 21.1612C77.673 21.6493 77.673 22.4408 78.1612 22.9289L85.2322 30L78.1612 37.0711C77.673 37.5592 77.673 38.3507 78.1612 38.8388C78.6493 39.327 79.4408 39.327 79.9289 38.8388L87.8839 30.8839ZM66 31.25L87 31.25L87 28.75L66 28.75L66 31.25Z" fill="white"/>
<path d="M0.292893 30.2929C-0.0976314 30.6834 -0.0976315 31.3166 0.292892 31.7071L6.65685 38.0711C7.04738 38.4616 7.68054 38.4616 8.07107 38.0711C8.46159 37.6805 8.46159 37.0474 8.07107 36.6569L2.41421 31L8.07107 25.3431C8.46159 24.9526 8.46159 24.3195 8.07107 23.9289C7.68054 23.5384 7.04738 23.5384 6.65686 23.9289L0.292893 30.2929ZM22 30L1 30L1 32L22 32L22 30Z" fill="#1F2937"/>
</svg>
